<mxfile host="app.diagrams.net" modified="2021-11-16T04:10:25.504Z" agent="5.0 (Macintosh; Intel Mac OS X 10_15_7) AppleWebKit/537.36 (KHTML, like Gecko) Chrome/95.0.4638.69 Safari/537.36" etag="pdBH3kTLp0jZY7vr3pWg" version="15.7.4" type="github">
  <diagram id="kgpKYQtTHZ0yAKxKKP6v" name="Page-1">
    <mxGraphModel dx="946" dy="543" grid="1" gridSize="10" guides="1" tooltips="1" connect="1" arrows="1" fold="1" page="1" pageScale="1" pageWidth="850" pageHeight="1100" math="0" shadow="0">
      <root>
        <mxCell id="0" />
        <mxCell id="1" parent="0" />
        <mxCell id="yxkUopUPHEhHwRwqRZRT-1" value="Auth Server" style="rounded=0;whiteSpace=wrap;html=1;" vertex="1" parent="1">
          <mxGeometry x="120" y="400" width="110" height="40" as="geometry" />
        </mxCell>
        <mxCell id="yxkUopUPHEhHwRwqRZRT-2" value="Profile Server" style="rounded=0;whiteSpace=wrap;html=1;" vertex="1" parent="1">
          <mxGeometry x="250" y="400" width="110" height="40" as="geometry" />
        </mxCell>
        <mxCell id="yxkUopUPHEhHwRwqRZRT-3" value="Event Bus / Manager" style="rounded=0;whiteSpace=wrap;html=1;" vertex="1" parent="1">
          <mxGeometry x="380" y="400" width="110" height="40" as="geometry" />
        </mxCell>
        <mxCell id="yxkUopUPHEhHwRwqRZRT-4" value="Chat Server" style="rounded=0;whiteSpace=wrap;html=1;" vertex="1" parent="1">
          <mxGeometry x="510" y="400" width="110" height="40" as="geometry" />
        </mxCell>
        <mxCell id="yxkUopUPHEhHwRwqRZRT-5" value="Video Conferencing Server" style="rounded=0;whiteSpace=wrap;html=1;" vertex="1" parent="1">
          <mxGeometry x="640" y="400" width="110" height="40" as="geometry" />
        </mxCell>
        <mxCell id="yxkUopUPHEhHwRwqRZRT-7" value="Actor" style="shape=umlActor;verticalLabelPosition=bottom;verticalAlign=top;html=1;" vertex="1" parent="1">
          <mxGeometry x="60" y="380" width="30" height="60" as="geometry" />
        </mxCell>
      </root>
    </mxGraphModel>
  </diagram>
</mxfile>
